<svg width="25" height="24" viewBox="0 0 25 24" fill="none" xmlns="http://www.w3.org/2000/svg">
<path d="M3.62905 5.66667L18.8296 20.5065M3.62905 5.66667C4.19461 5.021 5.03932 4.61111 5.98307 4.61111H11.1217M3.62905 5.66667C3.17419 6.18596 2.8999 6.85777 2.8999 7.5915V18.5196C2.8999 20.1656 4.28028 21.5 5.98307 21.5H17.288C18.9908 21.5 20.3712 20.1656 20.3712 18.5196V14.049M11.1217 14.049L4.44148 20.5065M18.4056 5.87778V5.81428M21.8999 5.80435C21.8999 8.00725 18.4056 10.9444 18.4056 10.9444C18.4056 10.9444 14.9114 8.00725 14.9114 5.80435C14.9114 3.97941 16.4758 2.5 18.4056 2.5C20.3355 2.5 21.8999 3.97941 21.8999 5.80435Z" stroke="white" stroke-width="2" stroke-linecap="round" stroke-linejoin="round"/>
</svg>
